#!OML:ASF H:\Male1\Project 1\Capture day 1\Session 1\Male1.ASF
:FULLY-SPECIFIED
:DEGREES
236
root 8.9776 13.5558 3.28573 188.796 4.50644 -174.703
lowerback 23.9364 -0.266211 1.43034
upperback 7.34076 1.5236 0.831111
thorax -5.24619 1.348 -0.395706
lowerneck 3.12653 6.77589 10.3178
upperneck -26.7405 10.0301 -14.5275
head -7.31579 6.38114 -7.40118
rclavicle -9.34288e-015 6.95746e-015
rhumerus 0.00478308 24.7536 -72.217
rradius 102.296
rwrist -45.3368
rhand -38.2883 -3.56724
rfingers 7.12502
rthumb -11.3173 -33.2419
lclavicle -9.34288e-015 6.95746e-015
lhumerus -0.0254957 -11.0262 85.0978
lradius 101.953
lwrist 38.8567
lhand -40.7892 27.8639
lfingers 7.12502
lthumb -13.7285 57.391
rfemur -44.9401 3.67082 33.1148
rtibia 73.2572
rfoot -26.9021 -23.4505
rtoes -23.4048
lfemur -44.5084 0.0964985 -15.6172
ltibia 77.185
lfoot -29.5769 12.711
ltoes -16.614
237
root 8.97541 13.8531 3.19316 187.998 5.45519 -175.011
lowerback 23.0015 -0.162295 1.65623
upperback 6.76099 1.47802 0.408654
thorax -5.39077 1.24842 -0.953054
lowerneck 3.22712 7.11883 10.0981
upperneck -25.7734 10.4166 -14.1482
head -7.00235 6.46294 -7.15656
rclavicle 0 -1.23246e-014
rhumerus 7.48895 27.8185 -63.211
rradius 105.745
rwrist -45.4269
rhand -37.3604 -4.72098
rfingers 7.12502
rthumb -10.4223 -34.4427
lclavicle 0 -1.23246e-014
lhumerus 3.15083 -12.0923 80.3031
lradius 107.405
lwrist 37.4499
lhand -39.2461 29.1053
lfingers 7.12502
lthumb -12.2409 58.7271
rfemur -41.5504 3.16814 32.6181
rtibia 69.2062
rfoot -24.3555 -22.5158
rtoes -23.6845
lfemur -40.9001 0.499145 -15.8485
ltibia 73.1128
lfoot -27.3337 12.2525
ltoes -16.2948
238
root 8.98285 14.2322 3.0638 187.187 6.4569 -175.379
lowerback 21.8971 -0.0623473 1.80584
upperback 6.21719 1.41402 -0.0739233
thorax -5.40212 1.14452 -1.51971
lowerneck 3.2145 7.49359 9.95985
upperneck -24.7794 10.8672 -13.6895
head -6.66078 6.56629 -6.89707
rclavicle -2.18663e-015 7.95139e-016
rhumerus 13.8895 30.0761 -53.2773
rradius 109.017
rwrist -45.7595
rhand -36.7568 -5.76058
rfingers 7.12502
rthumb -9.84004 -35.5106
lclavicle -2.18663e-015 7.95139e-016
lhumerus 4.53538 -11.9225 75.1933
lradius 112.306
lwrist 36.0235
lhand -37.6833 31.0738
lfingers 7.12502
lthumb -10.7338 60.7796
rfemur -37.3805 2.52691 32.0042
rtibia 63.9791
rfoot -21.0951 -21.3136
rtoes -23.985
lfemur -36.4982 1.06115 -16.1094
ltibia 67.782
lfoot -24.2977 11.6305
ltoes -16.024
239
root 9.00219 14.6908 2.8978 186.313 7.34998 -175.812
lowerback 20.6318 0.0315769 1.86573
upperback 5.72552 1.33939 -0.571854
thorax -5.26725 1.04454 -2.04197
lowerneck 2.94428 7.8555 9.90108
upperneck -23.5087 11.3039 -13.0541
head -6.20425 6.63602 -6.56206
rclavicle 1.23246e-014 1.11319e-014
rhumerus 18.5617 32.2453 -43.2464
rradius 112.123
rwrist -46.3093
rhand -36.4472 -6.84743
rfingers 7.12502
rthumb -9.5413 -36.6114
lclavicle 1.23246e-014 1.11319e-014
lhumerus 4.14334 -11.2712 70.2921
lradius 116.1
lwrist 34.7698
lhand -36.1932 33.1746
lfingers 7.12502
lthumb -9.2962 62.9497
rfemur -32.3774 1.78864 31.1864
rtibia 57.5593
rfoot -17.2472 -19.6834
rtoes -23.8806
lfemur -31.3001 1.59219 -16.4076
ltibia 61.167
lfoot -20.2551 11.0272
ltoes -16.0052
240
root 9.03568 15.2231 2.69678 185.433 8.02153 -176.29
lowerback 19.1259 0.151387 1.81422
upperback 5.26655 1.29259 -1.03309
thorax -4.96373 0.966119 -2.45891
lowerneck 2.38057 8.15461 9.92124
upperneck -21.8756 11.6471 -12.2338
head -5.61378 6.63695 -6.14684
rclavicle 5.1684e-015 -1.15295e-014
rhumerus 21.0861 35.2482 -33.9364
rradius 114.932
rwrist -46.8402
rhand -36.1414 -8.097
rfingers 7.12502
rthumb -9.24622 -37.8743
lclavicle 5.1684e-015 -1.15295e-014
lhumerus 2.21398 -11.0206 65.9483
lradius 118.366
lwrist 33.7539
lhand -34.9629 34.5454
lfingers 7.12502
lthumb -8.10896 64.3698
rfemur -26.7614 1.19169 30.1415
rtibia 50.1535
rfoot -12.6246 -17.9009
rtoes -23.0186
lfemur -25.5488 1.77036 -16.704
ltibia 53.5182
lfoot -15.0934 10.5737
ltoes -15.7779
241
root 9.08222 15.8137 2.46903 184.495 8.41147 -176.884
lowerback 17.5002 0.295485 1.48071
upperback 4.8146 1.25217 -1.42354
thorax -4.58489 0.898444 -2.63598
lowerneck 1.49098 8.40579 9.94738
upperneck -19.7513 11.8907 -11.2167
head -4.85407 6.57325 -5.63607
rclavicle -1.09332e-014 1.82882e-014
rhumerus 21.4562 39.8662 -26.2829
rradius 117.016
rwrist -47.1579
rhand -35.4385 -9.27928
rfingers 7.12502
rthumb -8.56794 -39.0854
lclavicle -1.09332e-014 1.82882e-014
lhumerus -1.06215 -11.7659 62.5515
lradius 118.921
lwrist 32.8865
lhand -33.8914 34.9641
lfingers 7.12502
lthumb -7.0747 64.8258
rfemur -20.8386 1.16216 28.9094
rtibia 42.4188
rfoot -7.18198 -17.133
rtoes -23.9556
lfemur -19.601 0.980644 -17.1091
ltibia 45.4153
lfoot -9.37572 11.1452
ltoes -16.367
242
root 9.13601 16.4134 2.231 183.731 8.50189 -177.416
lowerback 15.6506 0.448807 1.04087
upperback 4.28794 1.22523 -1.68866
thorax -4.15749 0.835637 -2.61673
lowerneck 0.350856 8.62428 9.84682
upperneck -17.2662 12.0617 -9.99282
head -3.98809 6.48164 -5.03246
rclavicle 5.36719e-015 6.36111e-015
rhumerus 19.5723 46.0429 -21.5515
rradius 117.754
rwrist -47.2087
rhand -34.0975 -10.3559
rfingers 7.12502
rthumb -7.27371 -40.2109
lclavicle 5.36719e-015 6.36111e-015
lhumerus -5.38401 -13.678 60.4714
lradius 117.803
lwrist 32.1642
lhand -33.3679 33.9134
lfingers 7.12502
lthumb -6.56942 63.7915
rfemur -15.3643 1.98973 27.8347
rtibia 35.233
rfoot -2.27402 -18.4996
rtoes -26.6639
lfemur -14.1364 -1.16382 -17.5897
ltibia 37.8167
lfoot -4.68957 13.8295
ltoes -14.3598
243
root 9.18932 16.9837 2.00964 183.177 8.36785 -178.007
lowerback 13.7041 0.621738 0.403564
upperback 3.68928 1.22642 -1.88151
thorax -3.74329 0.788783 -2.41391
lowerneck -0.873488 8.77667 9.59878
upperneck -14.7752 12.1365 -8.69625
head -3.14207 6.37726 -4.40874
rclavicle 3.35946e-014 -2.94201e-014
rhumerus 14.7831 52.8078 -21.3979
rradius 116.559
rwrist -46.9824
rhand -32.4208 -11.1326
rfingers 7.12502
rthumb -5.65499 -41.0372
lclavicle 3.35946e-014 -2.94201e-014
lhumerus -10.2951 -16.2867 59.9699
lradius 115.165
lwrist 31.2431
lhand -33.2586 31.8474
lfingers 7.12502
lthumb -6.4639 61.7287
rfemur -10.838 3.90742 26.9621
rtibia 29.4902
rfoot 0.665574 -22.7392
rtoes -28.0533
lfemur -9.51087 -4.80316 -18.5121
ltibia 31.5617
lfoot -2.60987 19.5303
ltoes -10.6114
244
root 9.23714 17.5466 1.81957 182.811 8.19241 -178.518
lowerback 11.7958 0.808664 -0.196869
upperback 3.06678 1.29603 -2.02951
thorax -3.35896 0.782244 -2.19791
lowerneck -1.8662 8.85252 9.31685
upperneck -12.4247 12.1737 -7.31125
head -2.67153 6.27086 -4.1827
rclavicle 1.27222e-014 4.05521e-014
rhumerus 5.7994 58.5722 -27.6091
rradius 113.398
rwrist -46.4612
rhand -31.262 -11.3838
rfingers 7.12502
rthumb -4.53614 -41.3152
lclavicle 1.27222e-014 4.05521e-014
lhumerus -15.5083 -18.8478 60.8259
lradius 111.381
lwrist 30.0386
lhand -33.467 29.5094
lfingers 7.12502
lthumb -6.66509 59.3845
rfemur -7.44102 6.66893 26.5141
rtibia 25.7697
rfoot -1.88461 -29.2096
rtoes -20.7593
lfemur -5.81876 -9.10638 -19.8567
ltibia 27.4073
lfoot -6.1045 26.8403
ltoes -2.02928
245
root 9.28093 18.1357 1.66624 182.442 8.04692 -178.881
lowerback 10.2146 0.9906 -0.625462
upperback 2.50929 1.42617 -2.15491
thorax -3.07192 0.81724 -2.06982
lowerneck -2.65245 8.88201 9.02296
upperneck -10.8655 12.1095 -6.42649
head -2.07731 6.18836 -3.69351
rclavicle -2.16675e-014 -1.51076e-014
rhumerus -7.76007 61.4733 -40.5174
rradius 108.668
rwrist -45.4022
rhand -30.66 -11.0526
rfingers 7.12502
rthumb -3.95478 -40.9956
lclavicle -2.16675e-014 -1.51076e-014
lhumerus -20.4117 -20.3029 62.8415
lradius 106.547
lwrist 28.6747
lhand -33.4041 27.721
lfingers 7.12502
lthumb -6.60434 57.598
rfemur -5.05598 8.72641 26.4495
rtibia 24.1767
rfoot -10.959 -33.5505
rtoes -3.37858
lfemur -2.92747 -12.1547 -21.3926
ltibia 25.4818
lfoot -13.9416 32.0755
ltoes 7.01431
